<?xml version="1.0" standalone="no"?>
<!DOCTYPE svg PUBLIC "-//W3C//DTD SVG 20010904//EN"
 "http://www.w3.org/TR/2001/REC-SVG-20010904/DTD/svg10.dtd">
<svg version="1.0" xmlns="http://www.w3.org/2000/svg"
 width="449.000000pt" height="1003.000000pt" viewBox="0 0 449.000000 1003.000000"
 preserveAspectRatio="xMidYMid meet">

<g transform="translate(0.000000,1003.000000) scale(0.100000,-0.100000)"
fill="#000000" stroke="none">
<path d="M2043 10002 c-97 -35 -163 -94 -214 -192 -30 -58 -39 -203 -16 -267
l15 -43 -58 -35 c-200 -121 -441 -352 -638 -610 -42 -55 -80 -101 -84 -103 -4
-2 -8 -8 -8 -12 0 -5 -37 -67 -83 -137 -139 -215 -177 -282 -144 -255 21 17
238 99 347 131 758 220 1502 195 2278 -77 78 -28 139 -45 135 -39 -3 7 -42 71
-85 142 -44 72 -82 135 -86 142 -4 6 -32 47 -63 90 -116 162 -226 292 -368
434 -150 150 -262 240 -388 313 -69 39 -71 42 -65 71 4 16 7 66 7 110 -1 66
-6 91 -29 141 -33 74 -101 142 -176 180 -73 37 -198 44 -277 16z m177 -138
c35 -30 78 -110 109 -203 30 -92 31 -91 -40 -84 -49 4 -64 2 -81 -13 -12 -11
-19 -14 -16 -9 4 6 -8 10 -27 10 -19 0 -31 -4 -27 -10 3 -5 -2 -4 -11 4 -12 9
-35 12 -77 9 l-59 -4 5 25 c29 124 85 244 130 280 35 28 56 26 94 -5z m63
-365 c6 -7 8 -11 3 -7 -5 4 -18 2 -30 -4 -11 -7 -24 -11 -28 -10 -5 1 -8 -2
-8 -6 0 -26 -148 10 -167 41 -10 16 215 3 230 -14z"/>
<path d="M2062 8429 c-83 -11 -199 -43 -286 -80 -87 -37 -216 -116 -216 -132
0 -27 -70 -157 -105 -195 -42 -47 -111 -77 -154 -69 -26 6 -35 1 -66 -36 -20
-23 -65 -85 -100 -137 -198 -298 -326 -655 -365 -1012 -15 -143 -12 -446 5
-561 74 -490 484 -881 1047 -997 107 -22 262 -40 343 -40 l55 0 0 -579 0 -580
-52 -5 c-29 -3 -105 -10 -168 -16 -158 -15 -412 -55 -545 -85 l-110 -25 -22
27 c-43 53 -172 280 -247 433 -246 502 -422 1136 -491 1767 -22 199 -21 196
-45 183 -46 -24 -90 -6 -90 38 0 21 -2 23 -16 11 -13 -11 -14 -9 -8 17 19 82
57 134 96 134 l23 0 0 428 c0 271 5 480 13 572 13 142 47 431 57 480 10 51
-99 -192 -175 -390 -45 -116 -56 -239 -29 -310 10 -28 19 -63 19 -78 0 -32
-27 -120 -43 -140 -17 -21 0 -500 29 -842 l6 -75 36 -1 c37 -1 72 -31 72 -64
0 -24 -32 -50 -63 -50 -34 0 -34 1 -1 -209 95 -618 262 -1179 494 -1656 43
-88 100 -198 127 -245 l50 -85 -146 -51 c-176 -61 -307 -116 -449 -191 -115
-60 -129 -69 -119 -79 4 -4 55 18 114 49 233 121 506 215 916 318 159 39 432
79 705 103 l62 6 0 -414 0 -413 -25 -11 c-13 -6 -27 -22 -31 -35 -5 -23 -12
-25 -87 -31 -45 -4 -91 -9 -102 -12 -15 -4 -23 3 -33 28 -7 18 -18 41 -23 52
-8 13 -7 16 2 11 9 -6 10 -1 5 19 -4 15 -3 25 2 22 5 -3 8 10 8 28 -2 37 -17
54 -156 166 -106 86 -217 200 -321 330 -40 50 -77 89 -83 87 -6 -2 -50 -14
-98 -27 -49 -13 -88 -28 -88 -34 0 -13 95 -146 190 -268 81 -103 295 -318 378
-378 33 -25 61 -48 62 -51 0 -4 -28 -10 -62 -13 -85 -10 -417 -71 -547 -101
-58 -13 -106 -23 -106 -22 -19 46 -28 57 -51 63 -21 6 -31 2 -46 -16 -10 -12
-18 -30 -17 -39 0 -11 3 -10 9 6 14 34 43 45 69 27 18 -13 22 -24 20 -66 -2
-40 -7 -53 -26 -65 -21 -14 -26 -13 -55 6 -18 11 -27 21 -20 21 6 0 12 7 12
15 0 8 -6 15 -12 15 -13 0 -391 -100 -396 -104 -2 -3 51 -225 64 -268 8 -26
-3 -25 -336 37 -163 30 -300 55 -304 55 -10 0 -7 -317 5 -457 55 -678 272
-1397 606 -2010 l67 -123 58 0 c57 0 58 1 58 28 0 15 -11 423 -25 907 -14 484
-25 883 -25 888 0 4 16 7 35 7 32 0 35 -3 46 -42 29 -108 200 -704 228 -794
l31 -102 85 -7 c47 -4 87 -10 90 -15 3 -4 17 -88 31 -187 14 -98 26 -179 27
-180 1 -1 223 -6 492 -12 270 -6 543 -14 608 -17 l117 -6 1 -82 c3 -128 -2
-328 -7 -359 l-6 -27 66 0 c45 0 66 4 66 12 0 29 21 348 26 395 l5 53 202 2
201 3 23 170 c12 94 25 189 28 212 l6 42 62 3 62 3 58 200 c32 110 93 325 136
479 43 153 81 274 85 267 4 -6 16 -11 27 -11 23 0 23 96 4 -835 -8 -401 -15
-790 -15 -862 l0 -133 49 0 48 0 61 113 c310 570 506 1176 592 1827 22 161 40
650 25 650 -4 0 -142 -25 -305 -55 -163 -30 -304 -55 -312 -55 -12 0 -5 41 38
218 29 119 55 224 59 233 5 13 -4 20 -42 33 -59 19 -234 60 -330 76 -61 11
-72 16 -77 36 -9 34 -34 54 -67 54 -23 0 -34 -7 -47 -30 l-17 -31 -85 7 c-47
3 -87 8 -89 10 -2 2 13 11 34 19 57 24 35 29 -24 5 -49 -19 -66 -20 -274 -14
-122 3 -283 1 -357 -4 l-135 -10 -23 29 c-13 16 -30 29 -38 29 -12 0 -14 142
-14 1009 l0 1009 68 7 c378 35 668 156 896 375 183 176 285 353 343 599 22 93
26 135 30 353 8 353 -15 521 -112 813 -107 328 -256 577 -467 781 -107 104
-191 166 -304 224 -190 98 -424 138 -642 109z m-184 -175 c35 -24 26 -58 -15
-62 -27 -3 -35 1 -44 22 -9 20 -9 29 1 41 16 19 30 19 58 -1z m917 -108 c20
-31 10 -56 -24 -56 -33 0 -51 17 -51 46 0 39 52 46 75 10z m-317 -126 c369
-105 653 -472 762 -985 27 -128 38 -365 21 -471 -66 -407 -388 -700 -846 -771
-121 -18 -322 -13 -440 12 -428 89 -754 367 -846 720 -43 165 -19 445 56 674
157 472 483 773 911 841 96 15 298 5 382 -20z m863 -507 c7 -20 6 -30 -5 -41
-21 -21 -64 -8 -72 23 -8 33 2 45 37 45 23 0 32 -6 40 -27z m-2197 -22 c28
-31 17 -56 -24 -56 -29 0 -36 5 -44 28 -8 22 -7 30 4 37 23 15 45 12 64 -9z
m-120 -967 c9 -8 16 -24 16 -35 0 -42 -75 -36 -86 7 -10 41 38 61 70 28z
m2422 -220 c16 -23 16 -26 1 -42 -33 -32 -90 9 -73 54 9 24 54 17 72 -12z
m-647 -440 c-104 -106 -216 -151 -358 -141 -47 3 -111 15 -141 26 l-55 20 65
0 c172 3 408 64 498 130 44 31 39 14 -9 -35z m465 -48 c-6 -17 -95 -95 -174
-153 -73 -54 -175 -111 -280 -155 -110 -47 -169 -60 -69 -16 168 76 339 181
459 282 74 63 71 60 64 42z m-1596 -58 c32 -32 -2 -79 -44 -60 -47 22 -45 72
4 72 15 0 33 -5 40 -12z m1064 -93 c20 -45 -25 -73 -64 -38 -18 16 -24 44 -11
56 3 4 19 7 35 7 21 0 32 -7 40 -25z m-448 -2544 c17 -18 18 -28 15 -82 -2
-43 -66 -64 -105 -34 -10 8 -38 15 -62 15 -123 1 -557 -59 -868 -121 -169 -33
-220 -34 -77 -1 309 71 952 164 979 141 10 -8 12 -4 7 24 -4 27 -1 39 16 56
26 26 72 27 95 2z m1068 -8 c33 -30 20 -120 -19 -129 -34 -9 -59 17 -62 67 -3
66 40 100 81 62z m-692 -63 c-152 -4 -294 -11 -318 -15 -36 -6 -41 -4 -36 9 5
14 41 16 318 14 l311 -1 -275 -7z m393 -7 c-13 -2 -35 -2 -50 0 -16 2 -5 4 22
4 28 0 40 -2 28 -4z m204 -19 c-3 -3 -12 -4 -19 -1 -8 3 -5 6 6 6 11 1 17 -2
13 -5z m-2335 -454 c144 -511 281 -977 410 -1393 40 -131 67 -232 62 -237 -5
-4 -64 -12 -131 -17 l-123 -8 -11 30 c-111 304 -230 700 -334 1115 -49 192
-163 694 -160 698 5 6 200 60 209 58 5 -1 40 -112 78 -246z m388 -36 c19 -66
5 -77 -88 -72 -82 4 -102 18 -102 70 0 22 8 32 43 49 92 48 124 38 147 -47z
m434 -15 c-3 -5 2 -6 10 -3 9 3 13 11 9 18 -5 8 -2 7 8 -1 44 -35 -4 -99 -50
-67 -24 17 -26 36 -9 64 9 14 16 16 25 8 7 -5 10 -14 7 -19z m1610 -565 c22
-9 20 -31 -4 -37 -21 -5 -45 16 -35 33 7 11 17 13 39 4z m-1216 -547 c3 -30
-2 -43 -27 -67 -16 -17 -34 -30 -40 -30 -17 0 -42 32 -37 47 3 8 6 23 6 33 0
28 40 61 70 58 21 -3 25 -9 28 -41z"/>
<path d="M4015 7517 c-22 -7 -39 -17 -38 -22 1 -6 18 -58 38 -117 36 -105 37
-107 64 -102 39 8 108 -13 126 -39 28 -41 19 -113 -26 -203 l-41 -81 17 -77
17 -77 32 6 c102 22 206 107 252 208 25 54 29 74 29 152 0 78 -4 98 -28 151
-34 74 -102 143 -177 180 -45 23 -71 28 -140 31 -49 1 -102 -3 -125 -10z"/>
<path d="M185 7366 c-42 -18 -92 -78 -105 -126 -21 -77 12 -162 79 -205 35
-22 101 -43 101 -31 0 3 -15 26 -34 51 -41 54 -51 93 -36 141 13 39 69 86 126
104 19 6 34 15 34 20 0 5 2 15 5 22 13 34 -109 51 -170 24z"/>
<path d="M2064 4235 c-52 -52 -8 -116 69 -101 47 9 63 36 46 77 -22 54 -74 65
-115 24z"/>
<path d="M4040 3974 c0 -6 -8 -19 -18 -30 -10 -11 -27 -63 -40 -124 -12 -58
-35 -168 -51 -245 l-30 -140 27 32 c24 27 34 64 75 269 26 130 45 239 42 242
-3 3 -5 1 -5 -4z"/>
<path d="M2061 3896 c-31 -33 -25 -76 11 -94 40 -19 97 -6 108 24 28 72 -66
127 -119 70z"/>
<path d="M3845 3703 c-65 -84 -222 -245 -305 -313 -55 -45 -65 -58 -66 -87 -1
-44 -37 -81 -91 -96 -39 -10 -41 -12 -27 -28 14 -15 20 -16 67 -3 72 19 126
17 171 -5 l38 -20 129 130 c71 72 129 135 129 140 0 5 -13 9 -30 9 -16 0 -30
4 -30 8 0 4 16 79 35 166 19 88 34 160 33 161 -2 1 -25 -27 -53 -62z m-275
-449 c0 -22 -36 -36 -49 -20 -9 11 -8 18 4 30 17 17 45 11 45 -10z"/>
</g>
</svg>
